<svg width="40" height="39" viewBox="0 0 40 39" fill="none" xmlns="http://www.w3.org/2000/svg">
<path d="M39.2721 36.7933L28.4161 26.1733C31.0249 23.1095 32.3258 19.1798 32.0482 15.2016C31.7706 11.2234 29.9359 7.50306 26.9258 4.81449C23.9156 2.12592 19.9618 0.676119 15.8868 0.766698C11.8118 0.857277 7.92937 2.48126 5.04716 5.30081C2.16496 8.12035 0.504886 11.9184 0.412295 15.9048C0.319703 19.8912 1.80172 23.7591 4.55004 26.7038C7.29836 29.6485 11.1014 31.4433 15.168 31.7149C19.2346 31.9864 23.2516 30.7138 26.3835 28.1617L37.2395 38.7817L39.2721 36.7933ZM3.33461 16.2817C3.33461 13.7786 4.09338 11.3316 5.51497 9.2503C6.93656 7.16899 8.95712 5.5468 11.3211 4.58888C13.6852 3.63096 16.2865 3.38033 18.7961 3.86867C21.3057 4.35701 23.611 5.5624 25.4203 7.33241C27.2296 9.10242 28.4618 11.3575 28.961 13.8126C29.4602 16.2677 29.204 18.8124 28.2248 21.1251C27.2456 23.4377 25.5874 25.4143 23.4598 26.805C21.3322 28.1957 18.8309 28.938 16.2721 28.938C12.842 28.9343 9.55354 27.5996 7.12812 25.2269C4.70269 22.8542 3.33841 19.6372 3.33461 16.2817Z" fill="#103C78"/>
</svg>
